<?xml version="1.0" encoding="UTF-8"?>
<!-- Created with Inkscape (http://www.inkscape.org/) -->
<svg width="2048" height="1024" version="1.1" viewBox="0 0 541.87 270.93" xmlns="http://www.w3.org/2000/svg">
 <g fill="#002d4d" stroke="#002d4d" stroke-linecap="round" stroke-linejoin="round">
  <g transform="matrix(.89845 0 0 .89845 13.756 5.1004)">
   <path d="m120.49 68.188v85.599h32.35v-85.599zm0 102.06v17.493c0 5.2655-0.79335 9.4849-2.3802 12.659-1.5147 3.1737-3.5704 5.4462-6.1671 6.8166-2.5967 1.3705-5.5543 2.0557-8.8723 2.0557-2.8852 0-5.4821-0.5048-7.7902-1.5146-2.3082-1.082-4.2557-2.3442-5.8425-3.7868s-2.8128-2.7772-3.6783-4.0034l-12.118 28.023c0.64917 1.0098 2.4163 2.5248 5.3015 4.5444 2.8852 1.9475 6.7802 3.7505 11.685 5.4095 4.9049 1.7311 10.676 2.5967 17.312 2.5967 9.1606 0 17.095-1.8394 23.803-5.518 6.7802-3.6786 11.974-8.98 15.58-15.904 3.6786-6.9966 5.518-15.364 5.518-25.101v-23.769z" stroke-width="5.2917"/>
   <g transform="matrix(.83036 0 0 .85548 8.0883 -16.139) scale(1,-1) translate(0,-259)" stroke-width="3.9688">
    <rect x="48.683" y="90.951" width="38.629" height="77.258" rx="24.086" ry="23.379">
      <animate id="anim1" attributeName="height" attributeType="XML" from="77.258" to="0" begin="3s; anim2.end+3s" dur="0.1s" fill="freeze"/>
      <animate id="anim2" attributeName="height" attributeType="XML" from="0" to="77.258" begin="anim1.end" dur="0.1s" fill="freeze"/>
    </rect>
    <rect x="219.49" y="90.951" width="38.629" height="77.258" rx="24.086" ry="23.379">
      <animate id="anim1" attributeName="height" attributeType="XML" from="77.258" to="0" begin="3s; anim2.end+3s" dur="0.1s" fill="freeze"/>
      <animate id="anim2" attributeName="height" attributeType="XML" from="0" to="77.258" begin="anim1.end" dur="0.1s" fill="freeze"/>
    </rect>
   </g>
  </g>
  <path d="m192.91 220.94q-8.0213 0-14.26-3.2679-6.1794-3.3274-9.7444-9.0908-3.5056-5.8229-3.5056-13.309t3.5056-13.309q3.565-5.8823 9.7444-9.269 6.2388-3.3868 14.26-3.3868 8.0213 0 14.141 3.3868t9.5661 9.269q3.4462 5.8229 3.4462 13.309t-3.4462 13.309q-3.4462 5.7634-9.5661 9.0908-6.12 3.2679-14.141 3.2679zm0-14.854q3.0897 0 5.3475-1.3666t3.5056-3.8621q1.2478-2.4955 1.2478-5.6446 0-3.2085-1.2478-5.704-1.2478-2.4955-3.5056-3.9215t-5.3475-1.426-5.407 1.426q-2.2578 1.426-3.565 3.9215-1.2478 2.4955-1.2478 5.704 0 3.1491 1.2478 5.6446 1.3072 2.4955 3.565 3.8621 2.3173 1.3666 5.407 1.3666zm53.059 13.428h-18.063v-48.781h18.063v7.546h-0.29709q0.47534-1.3666 2.3173-3.4462 1.8419-2.139 5.1693-3.8027 3.3274-1.7231 8.1401-1.7231 3.3868 0 6.2388 1.0695 2.852 1.0101 4.1592 1.9608l-7.0112 14.676q-0.83184-1.0101-2.9708-2.0796-2.0796-1.1289-5.2287-1.1289-3.6244 0-6.0011 1.8419-2.3173 1.8419-3.4462 4.4563-1.0695 2.6144-1.0695 4.9316zm50.218 1.426q-7.0706 0-12.299-3.4462-5.2287-3.5056-8.1401-9.3285-2.852-5.8823-2.852-13.012t2.852-12.953q2.9114-5.8823 8.1401-9.3879 5.2287-3.5056 12.299-3.5056 4.694 0 8.3184 1.4854 3.6244 1.426 5.8823 3.4462 2.2578 1.9608 2.7332 3.6244v-40.106h18.063v81.758h-17.885v-7.9025q-1.1289 2.1984-3.6838 4.3968-2.5549 2.139-6.0011 3.5056-3.4462 1.426-7.4271 1.426zm5.5258-14.201q3.2679 0 5.8229-1.4854 2.6144-1.4854 4.0998-4.0998 1.4854-2.6738 1.4854-6.0011 0-3.3274-1.4854-5.9417-1.4854-2.6738-4.0998-4.1592-2.5549-1.5448-5.8229-1.5448-3.1491 0-5.704 1.5448-2.4955 1.4854-3.9809 4.1592-1.426 2.6143-1.426 5.9417 0 3.3274 1.426 6.0011 1.4854 2.6144 3.9809 4.0998 2.5549 1.4854 5.704 1.4854zm77.777 12.775v-7.9025q-0.53476 1.1883-2.7332 3.4462-2.139 2.2578-5.704 4.0998-3.565 1.7825-8.3184 1.7825-7.13 0-12.478-3.4462-5.3475-3.5056-8.3184-9.3285-2.9708-5.8823-2.9708-13.012t2.9708-12.953q2.9708-5.8823 8.3184-9.3879 5.3475-3.5056 12.478-3.5056 4.5751 0 8.0213 1.4854 3.4462 1.426 5.5852 3.4462 2.139 1.9608 2.9708 3.6244v-7.13h17.944v48.781zm-22.816-24.361q0 3.3274 1.5448 6.0011 1.5448 2.6144 4.0998 4.0998 2.6144 1.4854 5.7634 1.4854 3.2679 0 5.7634-1.4854 2.4955-1.4854 3.9215-4.0998 1.4854-2.6738 1.4854-6.0011 0-3.3274-1.4854-5.9417-1.426-2.6738-3.9215-4.1592-2.4955-1.5448-5.7634-1.5448-3.1491 0-5.7634 1.5448-2.5549 1.4854-4.0998 4.1592-1.5448 2.6143-1.5448 5.9417zm85.62-25.846q5.1099 0 9.9821 2.0796 4.8722 2.0796 8.0213 6.5953 3.1491 4.4563 3.1491 11.765v29.768h-18.122v-26.797q0-5.2287-2.4955-7.843-2.4955-2.6738-6.5359-2.6738-2.6738 0-5.0504 1.426-2.3173 1.3666-3.8027 3.9215-1.426 2.4955-1.426 5.7634v26.203h-18.063v-48.781h18.063v7.1895q0.71301-1.9608 2.9708-3.9215 2.3173-2.0202 5.7634-3.3274 3.5056-1.3666 7.546-1.3666z" stroke-width="4.9514" aria-label="ordan"/>
 </g>
</svg>
